<svg xmlns="http://www.w3.org/2000/svg" width="32" height="28" viewBox="0 0 32 28" id="like">
  <g id="Page-1" fill="none" fill-rule="evenodd" stroke="none" stroke-width="1">
    <g id="Asset-1" fill="#000" fill-rule="nonzero" transform="translate(-7 -2)">
      <g id="Lager_102" transform="translate(7 2)">
        <path id="Shape" d="M23 4c2.757 0 5 2.692 5 6 0 6.308-7.637 11.425-12 13.601C11.632 21.422 4 16.307 4 10c0-3.308 2.243-6 5-6a5.033 5.033 0 0 1 3.765 2.353l1.618 1.772a2 2 0 0 0 3.234 0l1.618-1.772A5.033 5.033 0 0 1 23 4zm0-4a8.961 8.961 0 0 0-7 4 8.961 8.961 0 0 0-7-4C4.03 0 0 4.477 0 10c0 11.438 16 18 16 18s16-6.563 16-18c0-5.523-4.03-10-9-10z"></path>
      </g>
    </g>
  </g>
</svg>
